<?xml version="1.0" standalone="no"?>
<!DOCTYPE svg PUBLIC "-//W3C//DTD SVG 20010904//EN"
 "http://www.w3.org/TR/2001/REC-SVG-20010904/DTD/svg10.dtd">
<svg version="1.0" xmlns="http://www.w3.org/2000/svg"
 width="700.000000pt" height="700.000000pt" viewBox="0 0 700.000000 700.000000"
 preserveAspectRatio="xMidYMid meet">
<metadata>
Created by potrace 1.14, written by Peter Selinger 2001-2017
</metadata>
<g transform="translate(0.000000,700.000000) scale(0.100000,-0.100000)"
fill="#000000" stroke="none">
<path d="M0 3500 l0 -3500 3500 0 3500 0 0 3500 0 3500 -3500 0 -3500 0 0
-3500z m5533 300 c155 -23 326 -97 445 -193 97 -79 262 -283 247 -306 -14 -23
-476 -323 -489 -318 -8 3 -39 39 -70 80 -94 125 -195 177 -346 177 -145 0
-238 -48 -287 -148 -58 -117 -29 -258 70 -348 64 -57 139 -99 335 -186 433
-192 614 -299 752 -445 98 -103 155 -202 194 -335 32 -111 50 -271 41 -373
-37 -428 -310 -708 -787 -805 -111 -23 -410 -28 -543 -9 -233 32 -515 163
-687 318 -62 56 -148 165 -205 261 l-37 62 25 19 c31 23 478 283 494 287 7 2
36 -29 65 -68 28 -38 88 -104 133 -145 131 -122 255 -168 452 -169 162 0 263
34 356 121 61 57 84 115 83 208 -1 169 -82 243 -439 405 -407 183 -540 257
-676 373 -87 74 -150 159 -211 282 -65 134 -80 212 -80 405 0 139 2 164 27
245 39 133 97 235 188 332 125 132 274 218 448 258 41 9 79 18 84 20 24 8 357
4 418 -5z m-1655 -27 l122 -6 0 -284 0 -283 -455 0 -455 0 0 -1295 0 -1295
-322 2 -323 3 -3 1293 -2 1292 -449 0 c-309 0 -452 3 -456 11 -4 6 -4 134 0
285 l8 274 236 3 c527 6 1986 7 2099 0z"/>
</g>
</svg>
